<mxfile host="app.diagrams.net" modified="2022-04-07T04:10:44.939Z" agent="5.0 (Windows NT 10.0; Win64; x64) AppleWebKit/537.36 (KHTML, like Gecko) Chrome/100.0.4896.60 Safari/537.36" etag="pNLMxRlGbV4OrzMzhtll" version="17.4.0" type="github">
  <diagram id="2u9-fmwB32sQfQ-mlDpx" name="第 1 页">
    <mxGraphModel dx="2624" dy="1782" grid="0" gridSize="10" guides="1" tooltips="1" connect="1" arrows="1" fold="1" page="0" pageScale="1" pageWidth="827" pageHeight="1169" math="0" shadow="0">
      <root>
        <mxCell id="0" />
        <mxCell id="1" parent="0" />
        <mxCell id="0V6VGUsb7iRAanUL1Azl-55" style="edgeStyle=orthogonalEdgeStyle;rounded=0;orthogonalLoop=1;jettySize=auto;html=1;" edge="1" parent="1" source="0V6VGUsb7iRAanUL1Azl-48" target="0V6VGUsb7iRAanUL1Azl-54">
          <mxGeometry relative="1" as="geometry" />
        </mxCell>
        <mxCell id="0V6VGUsb7iRAanUL1Azl-61" value="否" style="edgeLabel;html=1;align=center;verticalAlign=middle;resizable=0;points=[];" vertex="1" connectable="0" parent="0V6VGUsb7iRAanUL1Azl-55">
          <mxGeometry x="-0.0177" y="-3" relative="1" as="geometry">
            <mxPoint as="offset" />
          </mxGeometry>
        </mxCell>
        <mxCell id="0V6VGUsb7iRAanUL1Azl-59" style="edgeStyle=orthogonalEdgeStyle;rounded=0;orthogonalLoop=1;jettySize=auto;html=1;entryX=0.5;entryY=0;entryDx=0;entryDy=0;" edge="1" parent="1" source="0V6VGUsb7iRAanUL1Azl-48" target="0V6VGUsb7iRAanUL1Azl-49">
          <mxGeometry relative="1" as="geometry" />
        </mxCell>
        <mxCell id="0V6VGUsb7iRAanUL1Azl-60" value="是" style="edgeLabel;html=1;align=center;verticalAlign=middle;resizable=0;points=[];" vertex="1" connectable="0" parent="0V6VGUsb7iRAanUL1Azl-59">
          <mxGeometry x="0.1825" y="2" relative="1" as="geometry">
            <mxPoint as="offset" />
          </mxGeometry>
        </mxCell>
        <mxCell id="0V6VGUsb7iRAanUL1Azl-48" value="当天首次登录" style="rhombus;whiteSpace=wrap;html=1;labelBackgroundColor=#FFFFFF;" vertex="1" parent="1">
          <mxGeometry x="29" y="-369" width="206" height="80" as="geometry" />
        </mxCell>
        <mxCell id="0V6VGUsb7iRAanUL1Azl-62" style="edgeStyle=orthogonalEdgeStyle;rounded=0;orthogonalLoop=1;jettySize=auto;html=1;entryX=0.5;entryY=0;entryDx=0;entryDy=0;exitX=0.5;exitY=1;exitDx=0;exitDy=0;" edge="1" parent="1" source="0V6VGUsb7iRAanUL1Azl-49" target="0V6VGUsb7iRAanUL1Azl-51">
          <mxGeometry relative="1" as="geometry">
            <mxPoint x="532.7647346047793" y="-146.64821375229786" as="targetPoint" />
            <Array as="points">
              <mxPoint x="378" y="-158.06" />
              <mxPoint x="537" y="-158.06" />
            </Array>
          </mxGeometry>
        </mxCell>
        <mxCell id="0V6VGUsb7iRAanUL1Azl-98" value="是" style="edgeLabel;html=1;align=center;verticalAlign=middle;resizable=0;points=[];" vertex="1" connectable="0" parent="0V6VGUsb7iRAanUL1Azl-62">
          <mxGeometry x="-0.2908" y="-1" relative="1" as="geometry">
            <mxPoint as="offset" />
          </mxGeometry>
        </mxCell>
        <mxCell id="0V6VGUsb7iRAanUL1Azl-97" style="edgeStyle=orthogonalEdgeStyle;rounded=0;orthogonalLoop=1;jettySize=auto;html=1;entryX=0.5;entryY=0;entryDx=0;entryDy=0;" edge="1" parent="1" source="0V6VGUsb7iRAanUL1Azl-49" target="0V6VGUsb7iRAanUL1Azl-77">
          <mxGeometry relative="1" as="geometry">
            <Array as="points">
              <mxPoint x="378" y="-159" />
              <mxPoint x="247" y="-159" />
            </Array>
          </mxGeometry>
        </mxCell>
        <mxCell id="0V6VGUsb7iRAanUL1Azl-99" value="否" style="edgeLabel;html=1;align=center;verticalAlign=middle;resizable=0;points=[];" vertex="1" connectable="0" parent="0V6VGUsb7iRAanUL1Azl-97">
          <mxGeometry x="-0.2443" y="-1" relative="1" as="geometry">
            <mxPoint x="1" as="offset" />
          </mxGeometry>
        </mxCell>
        <mxCell id="0V6VGUsb7iRAanUL1Azl-49" value="拍脸数目&amp;gt;5" style="rhombus;whiteSpace=wrap;html=1;labelBackgroundColor=#FFFFFF;" vertex="1" parent="1">
          <mxGeometry x="275" y="-262.06" width="206" height="79" as="geometry" />
        </mxCell>
        <mxCell id="0V6VGUsb7iRAanUL1Azl-64" style="edgeStyle=orthogonalEdgeStyle;rounded=0;orthogonalLoop=1;jettySize=auto;html=1;" edge="1" parent="1" source="0V6VGUsb7iRAanUL1Azl-50" target="0V6VGUsb7iRAanUL1Azl-63">
          <mxGeometry relative="1" as="geometry" />
        </mxCell>
        <mxCell id="0V6VGUsb7iRAanUL1Azl-65" value="是" style="edgeLabel;html=1;align=center;verticalAlign=middle;resizable=0;points=[];" vertex="1" connectable="0" parent="0V6VGUsb7iRAanUL1Azl-64">
          <mxGeometry x="-0.4316" y="3" relative="1" as="geometry">
            <mxPoint x="-1" as="offset" />
          </mxGeometry>
        </mxCell>
        <mxCell id="0V6VGUsb7iRAanUL1Azl-67" style="edgeStyle=orthogonalEdgeStyle;rounded=0;orthogonalLoop=1;jettySize=auto;html=1;" edge="1" parent="1" source="0V6VGUsb7iRAanUL1Azl-50" target="0V6VGUsb7iRAanUL1Azl-66">
          <mxGeometry relative="1" as="geometry" />
        </mxCell>
        <mxCell id="0V6VGUsb7iRAanUL1Azl-68" value="否" style="edgeLabel;html=1;align=center;verticalAlign=middle;resizable=0;points=[];" vertex="1" connectable="0" parent="0V6VGUsb7iRAanUL1Azl-67">
          <mxGeometry x="0.2763" relative="1" as="geometry">
            <mxPoint x="1" as="offset" />
          </mxGeometry>
        </mxCell>
        <mxCell id="0V6VGUsb7iRAanUL1Azl-50" value="拍脸数目&amp;gt;3" style="rhombus;whiteSpace=wrap;html=1;labelBackgroundColor=#FFFFFF;" vertex="1" parent="1">
          <mxGeometry x="-184" y="-55" width="206" height="80" as="geometry" />
        </mxCell>
        <mxCell id="0V6VGUsb7iRAanUL1Azl-51" value="拍脸5次，cd5分钟" style="rounded=0;whiteSpace=wrap;html=1;labelBackgroundColor=#FFFFFF;" vertex="1" parent="1">
          <mxGeometry x="477" y="-119.06" width="120" height="60" as="geometry" />
        </mxCell>
        <mxCell id="0V6VGUsb7iRAanUL1Azl-101" style="edgeStyle=orthogonalEdgeStyle;rounded=0;orthogonalLoop=1;jettySize=auto;html=1;entryX=0;entryY=0.5;entryDx=0;entryDy=0;exitX=0.5;exitY=1;exitDx=0;exitDy=0;" edge="1" parent="1" source="0V6VGUsb7iRAanUL1Azl-51" target="0V6VGUsb7iRAanUL1Azl-53">
          <mxGeometry relative="1" as="geometry">
            <mxPoint x="605" y="24" as="sourcePoint" />
            <Array as="points">
              <mxPoint x="537" y="397" />
              <mxPoint x="-89" y="397" />
              <mxPoint x="-89" y="214" />
            </Array>
          </mxGeometry>
        </mxCell>
        <mxCell id="0V6VGUsb7iRAanUL1Azl-70" style="edgeStyle=orthogonalEdgeStyle;rounded=0;orthogonalLoop=1;jettySize=auto;html=1;entryX=0.5;entryY=0;entryDx=0;entryDy=0;" edge="1" parent="1" source="0V6VGUsb7iRAanUL1Azl-53" target="0V6VGUsb7iRAanUL1Azl-75">
          <mxGeometry relative="1" as="geometry">
            <mxPoint x="51" y="311.9999999999998" as="targetPoint" />
          </mxGeometry>
        </mxCell>
        <mxCell id="0V6VGUsb7iRAanUL1Azl-74" value="是" style="edgeLabel;html=1;align=center;verticalAlign=middle;resizable=0;points=[];" vertex="1" connectable="0" parent="0V6VGUsb7iRAanUL1Azl-70">
          <mxGeometry x="-0.2703" y="-2" relative="1" as="geometry">
            <mxPoint as="offset" />
          </mxGeometry>
        </mxCell>
        <mxCell id="0V6VGUsb7iRAanUL1Azl-103" style="edgeStyle=orthogonalEdgeStyle;rounded=0;orthogonalLoop=1;jettySize=auto;html=1;entryX=1;entryY=0.5;entryDx=0;entryDy=0;" edge="1" parent="1" source="0V6VGUsb7iRAanUL1Azl-53" target="0V6VGUsb7iRAanUL1Azl-50">
          <mxGeometry relative="1" as="geometry">
            <Array as="points">
              <mxPoint x="179" y="214" />
              <mxPoint x="179" y="-15" />
            </Array>
          </mxGeometry>
        </mxCell>
        <mxCell id="0V6VGUsb7iRAanUL1Azl-104" value="否" style="edgeLabel;html=1;align=center;verticalAlign=middle;resizable=0;points=[];" vertex="1" connectable="0" parent="0V6VGUsb7iRAanUL1Azl-103">
          <mxGeometry x="-0.2454" y="-4" relative="1" as="geometry">
            <mxPoint as="offset" />
          </mxGeometry>
        </mxCell>
        <mxCell id="0V6VGUsb7iRAanUL1Azl-53" value="是否有非忽略最大上限的" style="rhombus;whiteSpace=wrap;html=1;labelBackgroundColor=#FFFFFF;" vertex="1" parent="1">
          <mxGeometry x="-52.5" y="174" width="207" height="80" as="geometry" />
        </mxCell>
        <mxCell id="0V6VGUsb7iRAanUL1Azl-56" style="edgeStyle=orthogonalEdgeStyle;rounded=0;orthogonalLoop=1;jettySize=auto;html=1;" edge="1" parent="1" source="0V6VGUsb7iRAanUL1Azl-54" target="0V6VGUsb7iRAanUL1Azl-50">
          <mxGeometry relative="1" as="geometry" />
        </mxCell>
        <mxCell id="0V6VGUsb7iRAanUL1Azl-54" value="剔除不重要拍脸" style="rounded=0;whiteSpace=wrap;html=1;labelBackgroundColor=#FFFFFF;" vertex="1" parent="1">
          <mxGeometry x="-140" y="-226" width="120" height="60" as="geometry" />
        </mxCell>
        <mxCell id="0V6VGUsb7iRAanUL1Azl-69" style="edgeStyle=orthogonalEdgeStyle;rounded=0;orthogonalLoop=1;jettySize=auto;html=1;" edge="1" parent="1" source="0V6VGUsb7iRAanUL1Azl-63" target="0V6VGUsb7iRAanUL1Azl-53">
          <mxGeometry relative="1" as="geometry" />
        </mxCell>
        <mxCell id="0V6VGUsb7iRAanUL1Azl-63" value="拍脸3次，cd5分钟" style="rounded=0;whiteSpace=wrap;html=1;labelBackgroundColor=#FFFFFF;" vertex="1" parent="1">
          <mxGeometry x="-9" y="65" width="120" height="51" as="geometry" />
        </mxCell>
        <mxCell id="0V6VGUsb7iRAanUL1Azl-66" value="全部拍脸" style="rounded=0;whiteSpace=wrap;html=1;labelBackgroundColor=#FFFFFF;" vertex="1" parent="1">
          <mxGeometry x="-279" y="65" width="120" height="60" as="geometry" />
        </mxCell>
        <mxCell id="0V6VGUsb7iRAanUL1Azl-73" style="edgeStyle=orthogonalEdgeStyle;rounded=0;orthogonalLoop=1;jettySize=auto;html=1;exitX=0.5;exitY=1;exitDx=0;exitDy=0;" edge="1" parent="1">
          <mxGeometry relative="1" as="geometry">
            <mxPoint x="48" y="379.9999999999998" as="sourcePoint" />
            <mxPoint x="48" y="379.9999999999998" as="targetPoint" />
          </mxGeometry>
        </mxCell>
        <mxCell id="0V6VGUsb7iRAanUL1Azl-76" style="edgeStyle=orthogonalEdgeStyle;rounded=0;orthogonalLoop=1;jettySize=auto;html=1;entryX=1;entryY=0.5;entryDx=0;entryDy=0;exitX=1;exitY=0.5;exitDx=0;exitDy=0;" edge="1" parent="1" source="0V6VGUsb7iRAanUL1Azl-75" target="0V6VGUsb7iRAanUL1Azl-50">
          <mxGeometry relative="1" as="geometry">
            <Array as="points">
              <mxPoint x="268" y="328" />
              <mxPoint x="268" y="-15" />
            </Array>
          </mxGeometry>
        </mxCell>
        <mxCell id="0V6VGUsb7iRAanUL1Azl-75" value="剔除不可以忽略最大上限的拍脸" style="rounded=0;whiteSpace=wrap;html=1;labelBackgroundColor=#FFFFFF;" vertex="1" parent="1">
          <mxGeometry x="-9" y="303" width="120" height="51" as="geometry" />
        </mxCell>
        <mxCell id="0V6VGUsb7iRAanUL1Azl-77" value="全部拍脸" style="rounded=0;whiteSpace=wrap;html=1;labelBackgroundColor=#FFFFFF;" vertex="1" parent="1">
          <mxGeometry x="187" y="-135.06" width="120" height="60" as="geometry" />
        </mxCell>
        <mxCell id="0V6VGUsb7iRAanUL1Azl-79" style="edgeStyle=orthogonalEdgeStyle;rounded=0;orthogonalLoop=1;jettySize=auto;html=1;" edge="1" parent="1" source="0V6VGUsb7iRAanUL1Azl-78" target="0V6VGUsb7iRAanUL1Azl-80">
          <mxGeometry relative="1" as="geometry">
            <mxPoint x="-473" y="-366.99997486787674" as="targetPoint" />
          </mxGeometry>
        </mxCell>
        <mxCell id="0V6VGUsb7iRAanUL1Azl-78" value="游戏过程中触发拍脸" style="rounded=0;whiteSpace=wrap;html=1;labelBackgroundColor=#FFFFFF;" vertex="1" parent="1">
          <mxGeometry x="-534" y="-528" width="120" height="60" as="geometry" />
        </mxCell>
        <mxCell id="0V6VGUsb7iRAanUL1Azl-107" value="是" style="edgeStyle=orthogonalEdgeStyle;rounded=0;orthogonalLoop=1;jettySize=auto;html=1;entryX=0.5;entryY=0;entryDx=0;entryDy=0;" edge="1" parent="1" source="0V6VGUsb7iRAanUL1Azl-80" target="0V6VGUsb7iRAanUL1Azl-83">
          <mxGeometry relative="1" as="geometry">
            <mxPoint x="-474" y="-301" as="targetPoint" />
          </mxGeometry>
        </mxCell>
        <mxCell id="0V6VGUsb7iRAanUL1Azl-80" value="是否忽略最大上限" style="rhombus;whiteSpace=wrap;html=1;labelBackgroundColor=#FFFFFF;" vertex="1" parent="1">
          <mxGeometry x="-548" y="-423" width="148" height="72" as="geometry" />
        </mxCell>
        <mxCell id="0V6VGUsb7iRAanUL1Azl-87" style="edgeStyle=orthogonalEdgeStyle;rounded=0;orthogonalLoop=1;jettySize=auto;html=1;entryX=1;entryY=0.5;entryDx=0;entryDy=0;" edge="1" parent="1" source="0V6VGUsb7iRAanUL1Azl-83" target="0V6VGUsb7iRAanUL1Azl-88">
          <mxGeometry relative="1" as="geometry">
            <mxPoint x="-679" y="-267" as="targetPoint" />
          </mxGeometry>
        </mxCell>
        <mxCell id="0V6VGUsb7iRAanUL1Azl-89" value="是" style="edgeLabel;html=1;align=center;verticalAlign=middle;resizable=0;points=[];" vertex="1" connectable="0" parent="0V6VGUsb7iRAanUL1Azl-87">
          <mxGeometry x="0.2838" y="2" relative="1" as="geometry">
            <mxPoint as="offset" />
          </mxGeometry>
        </mxCell>
        <mxCell id="0V6VGUsb7iRAanUL1Azl-92" value="" style="edgeStyle=orthogonalEdgeStyle;rounded=0;orthogonalLoop=1;jettySize=auto;html=1;" edge="1" parent="1" source="0V6VGUsb7iRAanUL1Azl-83" target="0V6VGUsb7iRAanUL1Azl-91">
          <mxGeometry relative="1" as="geometry" />
        </mxCell>
        <mxCell id="0V6VGUsb7iRAanUL1Azl-93" value="否" style="edgeLabel;html=1;align=center;verticalAlign=middle;resizable=0;points=[];" vertex="1" connectable="0" parent="0V6VGUsb7iRAanUL1Azl-92">
          <mxGeometry x="-0.2771" y="2" relative="1" as="geometry">
            <mxPoint x="-2" y="5" as="offset" />
          </mxGeometry>
        </mxCell>
        <mxCell id="0V6VGUsb7iRAanUL1Azl-83" value="是否在cd中" style="rhombus;whiteSpace=wrap;html=1;labelBackgroundColor=#FFFFFF;" vertex="1" parent="1">
          <mxGeometry x="-548" y="-310" width="150" height="80" as="geometry" />
        </mxCell>
        <mxCell id="0V6VGUsb7iRAanUL1Azl-88" value="直接拍脸" style="rounded=0;whiteSpace=wrap;html=1;labelBackgroundColor=#FFFFFF;" vertex="1" parent="1">
          <mxGeometry x="-774.000645680147" y="-300.0000000000002" width="120" height="60" as="geometry" />
        </mxCell>
        <mxCell id="0V6VGUsb7iRAanUL1Azl-94" style="edgeStyle=orthogonalEdgeStyle;rounded=0;orthogonalLoop=1;jettySize=auto;html=1;exitX=1;exitY=0.5;exitDx=0;exitDy=0;" edge="1" parent="1" source="0V6VGUsb7iRAanUL1Azl-91">
          <mxGeometry relative="1" as="geometry">
            <mxPoint x="132" y="-369" as="targetPoint" />
            <Array as="points">
              <mxPoint x="-297" y="-141" />
              <mxPoint x="-297" y="-401" />
              <mxPoint x="132" y="-401" />
            </Array>
          </mxGeometry>
        </mxCell>
        <mxCell id="0V6VGUsb7iRAanUL1Azl-91" value="加入拍脸队列" style="whiteSpace=wrap;html=1;labelBackgroundColor=#FFFFFF;" vertex="1" parent="1">
          <mxGeometry x="-531" y="-170.94" width="120" height="60" as="geometry" />
        </mxCell>
        <mxCell id="0V6VGUsb7iRAanUL1Azl-96" style="edgeStyle=orthogonalEdgeStyle;rounded=0;orthogonalLoop=1;jettySize=auto;html=1;" edge="1" parent="1" source="0V6VGUsb7iRAanUL1Azl-95" target="0V6VGUsb7iRAanUL1Azl-48">
          <mxGeometry relative="1" as="geometry" />
        </mxCell>
        <mxCell id="0V6VGUsb7iRAanUL1Azl-95" value="登录游戏" style="rounded=0;whiteSpace=wrap;html=1;labelBackgroundColor=#FFFFFF;" vertex="1" parent="1">
          <mxGeometry x="72" y="-519" width="120" height="60" as="geometry" />
        </mxCell>
        <mxCell id="0V6VGUsb7iRAanUL1Azl-105" value="&lt;span&gt;两个参数都是face_ui表中的&lt;br&gt;是否重要：&lt;/span&gt;faceui_queue字段&lt;br&gt;是否忽略最大上限：faceui_ignore字段" style="shape=card;whiteSpace=wrap;html=1;labelBackgroundColor=#FFFFFF;fillColor=#fff2cc;strokeColor=#d6b656;shadow=1;" vertex="1" parent="1">
          <mxGeometry x="-577" y="235" width="343" height="143" as="geometry" />
        </mxCell>
      </root>
    </mxGraphModel>
  </diagram>
</mxfile>
